<?xml version="1.0" standalone="no"?>
<!DOCTYPE svg PUBLIC "-//W3C//DTD SVG 20010904//EN"
 "http://www.w3.org/TR/2001/REC-SVG-20010904/DTD/svg10.dtd">
<svg version="1.0" xmlns="http://www.w3.org/2000/svg"
 width="260.000000pt" height="260.000000pt" viewBox="0 0 260.000000 260.000000"
 preserveAspectRatio="xMidYMid meet">
<metadata>
Created by potrace 1.11, written by Peter Selinger 2001-2013
</metadata>
<g transform="translate(0.000000,260.000000) scale(0.100000,-0.100000)"
fill="#000000" stroke="none">
<path d="M1097 2594 c-1 -1 -24 -5 -52 -9 -27 -3 -80 -19 -117 -34 -152 -64
-266 -185 -319 -339 -24 -70 -29 -109 -31 -235 -1 -71 -5 -101 -16 -109 -42
-35 -134 -209 -147 -278 -8 -38 -19 -136 -17 -143 3 -12 -19 -78 -35 -102 -7
-10 -23 -20 -35 -21 -42 -2 -67 -15 -98 -51 -30 -34 -32 -40 -28 -104 4 -70
12 -85 76 -128 18 -12 21 -25 21 -85 0 -39 3 -84 6 -101 3 -16 7 -46 10 -65
16 -98 73 -241 139 -344 114 -179 297 -323 501 -394 118 -42 190 -51 370 -48
156 3 185 6 233 20 9 3 28 7 42 10 14 2 37 9 53 15 59 24 72 29 79 30 17 3
166 95 208 129 189 150 307 346 357 592 3 14 6 32 8 40 2 8 4 72 4 143 1 125
2 128 25 137 43 16 64 58 62 125 -1 33 -7 70 -14 82 -21 38 -67 63 -114 63
-43 0 -45 2 -67 48 -13 26 -42 74 -65 107 -23 33 -57 95 -76 138 -38 89 -72
141 -138 209 l-46 48 -3 87 c-3 107 -26 203 -63 263 -6 8 -18 31 -29 50 -36
65 -127 146 -214 189 -109 53 -155 63 -325 64 -79 1 -144 1 -145 1z"/>
</g>
</svg>
